<svg width="141" height="20" viewBox="0 0 141 20" fill="none" xmlns="http://www.w3.org/2000/svg">
<path d="M25.0901 19.7059V5.58824C25.0901 4.53654 25.3271 3.5918 25.801 2.75401C26.2932 1.8984 26.9767 1.22995 27.8517 0.748663C28.7267 0.249554 29.7657 0 30.9688 0C31.8802 0 32.6732 0.151515 33.3476 0.454546C34.0403 0.73975 34.6418 1.14082 35.1522 1.65775L32.5273 4.2246C32.345 4.04635 32.1354 3.91266 31.8984 3.82353C31.6797 3.71658 31.4154 3.6631 31.1055 3.6631C30.5404 3.6631 30.0938 3.82353 29.7657 4.14439C29.4376 4.46524 29.2735 4.90196 29.2735 5.45455V19.7059H25.0901ZM22.1644 10.1872V6.71123H27.633H33.1015V10.1872H22.1644Z" fill="white"/>
<path d="M40.267 19.9733C39.0457 19.9733 37.952 19.6791 36.9859 19.0909C36.038 18.5027 35.2815 17.7005 34.7164 16.6845C34.1696 15.6684 33.8962 14.5098 33.8962 13.2086C33.8962 11.9073 34.1696 10.7487 34.7164 9.73262C35.2815 8.71658 36.038 7.91444 36.9859 7.3262C37.952 6.73797 39.0457 6.44385 40.267 6.44385C41.1602 6.44385 41.9623 6.61319 42.6732 6.95187C43.4023 7.29055 43.9947 7.76292 44.4505 8.36898C44.9062 8.95722 45.1614 9.63458 45.2161 10.4011V16.016C45.1614 16.7825 44.9062 17.4688 44.4505 18.0749C44.013 18.6631 43.4297 19.1266 42.7005 19.4652C41.9714 19.8039 41.1602 19.9733 40.267 19.9733ZM41.1146 16.2834C42.0078 16.2834 42.7279 15.9982 43.2747 15.4278C43.8216 14.8396 44.095 14.0998 44.095 13.2086C44.095 12.6025 43.9674 12.0677 43.7122 11.6043C43.4752 11.1408 43.1289 10.7843 42.6732 10.5348C42.2357 10.2674 41.7253 10.1337 41.142 10.1337C40.5587 10.1337 40.0392 10.2674 39.5835 10.5348C39.146 10.7843 38.7905 11.1408 38.5171 11.6043C38.2619 12.0677 38.1343 12.6025 38.1343 13.2086C38.1343 13.7968 38.2619 14.3226 38.5171 14.7861C38.7723 15.2496 39.1277 15.615 39.5835 15.8824C40.0392 16.1497 40.5496 16.2834 41.1146 16.2834ZM43.9309 19.7059V16.2032L44.5598 13.0481L43.9309 9.89305V6.71123H48.0324V19.7059H43.9309Z" fill="white"/>
<path d="M59.7549 19.7059V12.2995C59.7549 11.6221 59.5362 11.0784 59.0987 10.6684C58.6794 10.2406 58.1417 10.0267 57.4855 10.0267C57.0298 10.0267 56.6287 10.1248 56.2824 10.3209C55.936 10.4991 55.6626 10.7665 55.4621 11.123C55.2616 11.4617 55.1613 11.8538 55.1613 12.2995L53.5481 11.5241C53.5481 10.508 53.776 9.61676 54.2317 8.85027C54.6874 8.08378 55.3163 7.49554 56.1183 7.08556C56.9386 6.65775 57.8591 6.44385 58.8799 6.44385C59.8643 6.44385 60.7301 6.67558 61.4775 7.13904C62.2431 7.58467 62.8446 8.18182 63.2821 8.93048C63.7196 9.67914 63.9383 10.4991 63.9383 11.3904V19.7059H59.7549ZM50.9779 19.7059V6.71123H55.1613V19.7059H50.9779Z" fill="white"/>
<path d="M72.2851 19.9733C71.0274 19.9733 69.9063 19.6791 68.922 19.0909C67.9559 18.5027 67.1903 17.7005 66.6252 16.6845C66.0783 15.6684 65.8049 14.5098 65.8049 13.2086C65.8049 11.9073 66.0783 10.7487 66.6252 9.73262C67.1903 8.71658 67.9559 7.91444 68.922 7.3262C69.9063 6.73797 71.0274 6.44385 72.2851 6.44385C73.1966 6.44385 74.0168 6.61319 74.746 6.95187C75.4934 7.29055 76.104 7.76292 76.5779 8.36898C77.0701 8.95722 77.3435 9.63458 77.3982 10.4011V15.8824C77.3435 16.6488 77.0792 17.344 76.6053 17.9679C76.1313 18.574 75.5207 19.0642 74.7733 19.4385C74.026 19.795 73.1966 19.9733 72.2851 19.9733ZM73.0234 16.2834C73.6249 16.2834 74.1444 16.1586 74.5819 15.9091C75.0194 15.6417 75.3658 15.2763 75.621 14.8128C75.8762 14.3494 76.0038 13.8146 76.0038 13.2086C76.0038 12.6025 75.8762 12.0767 75.621 11.631C75.384 11.1676 75.0376 10.8021 74.5819 10.5348C74.1444 10.2674 73.634 10.1337 73.0507 10.1337C72.4674 10.1337 71.9479 10.2674 71.4922 10.5348C71.0547 10.8021 70.6993 11.1676 70.4258 11.631C70.1706 12.0945 70.043 12.6203 70.043 13.2086C70.043 13.7968 70.1706 14.3226 70.4258 14.7861C70.681 15.2496 71.0365 15.615 71.4922 15.8824C71.9479 16.1497 72.4583 16.2834 73.0234 16.2834ZM79.9411 19.7059H75.8397V16.2032L76.4686 13.0481L75.7577 9.89305V0.294119H79.9411V19.7059Z" fill="white"/>
<path d="M88.4372 19.9733C87.2159 19.9733 86.1222 19.6791 85.1561 19.0909C84.2082 18.5027 83.4517 17.7005 82.8866 16.6845C82.3398 15.6684 82.0664 14.5098 82.0664 13.2086C82.0664 11.9073 82.3398 10.7487 82.8866 9.73262C83.4517 8.71658 84.2082 7.91444 85.1561 7.3262C86.1222 6.73797 87.2159 6.44385 88.4372 6.44385C89.3304 6.44385 90.1325 6.61319 90.8434 6.95187C91.5725 7.29055 92.1649 7.76292 92.6207 8.36898C93.0764 8.95722 93.3316 9.63458 93.3863 10.4011V16.016C93.3316 16.7825 93.0764 17.4688 92.6207 18.0749C92.1832 18.6631 91.5999 19.1266 90.8707 19.4652C90.1416 19.8039 89.3304 19.9733 88.4372 19.9733ZM89.2848 16.2834C90.178 16.2834 90.8981 15.9982 91.4449 15.4278C91.9918 14.8396 92.2652 14.0998 92.2652 13.2086C92.2652 12.6025 92.1376 12.0677 91.8824 11.6043C91.6454 11.1408 91.2991 10.7843 90.8434 10.5348C90.4059 10.2674 89.8955 10.1337 89.3122 10.1337C88.7289 10.1337 88.2094 10.2674 87.7536 10.5348C87.3162 10.7843 86.9607 11.1408 86.6873 11.6043C86.4321 12.0677 86.3045 12.6025 86.3045 13.2086C86.3045 13.7968 86.4321 14.3226 86.6873 14.7861C86.9425 15.2496 87.2979 15.615 87.7536 15.8824C88.2094 16.1497 88.7198 16.2834 89.2848 16.2834ZM92.1011 19.7059V16.2032L92.73 13.0481L92.1011 9.89305V6.71123H96.2026V19.7059H92.1011Z" fill="white"/>
<path d="M107.925 19.7059V12.2995C107.925 11.6221 107.706 11.0784 107.269 10.6684C106.85 10.2406 106.312 10.0267 105.656 10.0267C105.2 10.0267 104.799 10.1248 104.453 10.3209C104.106 10.4991 103.833 10.7665 103.632 11.123C103.432 11.4617 103.332 11.8538 103.332 12.2995L101.718 11.5241C101.718 10.508 101.946 9.61676 102.402 8.85027C102.858 8.08378 103.486 7.49554 104.289 7.08556C105.109 6.65775 106.029 6.44385 107.05 6.44385C108.034 6.44385 108.9 6.67558 109.648 7.13904C110.413 7.58467 111.015 8.18182 111.452 8.93048C111.89 9.67914 112.109 10.4991 112.109 11.3904V19.7059H107.925ZM99.1481 19.7059V6.71123H103.332V19.7059H99.1481Z" fill="white"/>
<path d="M121.221 20C119.854 20 118.614 19.7059 117.502 19.1176C116.39 18.5294 115.515 17.7184 114.877 16.6845C114.239 15.6506 113.92 14.492 113.92 13.2086C113.92 11.9073 114.239 10.7487 114.877 9.73262C115.534 8.69875 116.418 7.8877 117.53 7.29947C118.642 6.71123 119.89 6.41711 121.276 6.41711C122.315 6.41711 123.263 6.59537 124.119 6.95187C124.994 7.29055 125.769 7.80749 126.443 8.50267L123.764 11.123C123.454 10.7843 123.089 10.5348 122.67 10.3743C122.269 10.2139 121.804 10.1337 121.276 10.1337C120.674 10.1337 120.136 10.2674 119.662 10.5348C119.207 10.7843 118.842 11.1408 118.569 11.6043C118.313 12.0499 118.186 12.5758 118.186 13.1818C118.186 13.7879 118.313 14.3226 118.569 14.7861C118.842 15.2496 119.216 15.615 119.69 15.8824C120.164 16.1497 120.692 16.2834 121.276 16.2834C121.822 16.2834 122.306 16.1943 122.725 16.016C123.162 15.82 123.536 15.5526 123.846 15.2139L126.498 17.8342C125.805 18.5472 125.022 19.0909 124.147 19.4652C123.272 19.8217 122.296 20 121.221 20Z" fill="white"/>
<path d="M134.602 20C133.162 20 131.877 19.7148 130.746 19.1444C129.635 18.5562 128.76 17.7451 128.122 16.7112C127.484 15.6774 127.165 14.5098 127.165 13.2086C127.165 11.9073 127.474 10.7487 128.094 9.73262C128.732 8.69875 129.589 7.8877 130.664 7.29947C131.74 6.71123 132.952 6.41711 134.301 6.41711C135.613 6.41711 136.771 6.69341 137.774 7.24599C138.776 7.79857 139.56 8.56506 140.125 9.54545C140.708 10.5258 141 11.6488 141 12.9144C141 13.1462 140.982 13.3957 140.945 13.6631C140.927 13.9127 140.881 14.2068 140.809 14.5455L129.352 14.5722V11.7647L139.031 11.738L137.227 12.9144C137.208 12.1658 137.09 11.5508 136.871 11.0695C136.652 10.5704 136.324 10.1961 135.887 9.94652C135.468 9.67914 134.948 9.54545 134.328 9.54545C133.672 9.54545 133.098 9.69697 132.606 10C132.132 10.2852 131.758 10.6952 131.485 11.2299C131.23 11.7647 131.102 12.4153 131.102 13.1818C131.102 13.9483 131.239 14.6078 131.512 15.1604C131.804 15.6952 132.205 16.1141 132.715 16.4171C133.244 16.7023 133.864 16.8449 134.574 16.8449C135.231 16.8449 135.823 16.738 136.352 16.5241C136.88 16.2923 137.345 15.9537 137.746 15.508L140.043 17.754C139.387 18.5027 138.594 19.0642 137.664 19.4385C136.735 19.8128 135.714 20 134.602 20Z" fill="white"/>
<ellipse cx="8.52479" cy="11.3333" rx="8.52479" ry="8.33333" fill="#F72585"/>
<rect x="13.137" y="6.7934" width="9.04812" height="2.66698" rx="1.33349" transform="rotate(90 13.137 6.7934)" fill="white"/>
<rect x="13.1373" y="9.40048" width="9.25599" height="2.60708" rx="1.30354" transform="rotate(-180 13.1373 9.40048)" fill="white"/>
<rect width="11.6683" height="2.6372" rx="1.3186" transform="matrix(-0.715091 0.699031 -0.715091 -0.699031 13.6396 8.17682)" fill="white"/>
</svg>
